<?xml version="1.0" encoding="UTF-8"?>
<COLLADA xmlns="http://www.collada.org/2005/11/COLLADASchema" version="1.4.1">
<!--
# File generated by ImageToStl.com - Free Image and 3D model conversion tools
-->
  <library_effects>
    <effect id="effect_0">
        <profile_COMMON>
          <technique sid="common">
            <phong>
              <diffuse>
                <color>0.86275 0.86275 0.86275 1</color>
              </diffuse>
            </phong>
          </technique>
        </profile_COMMON>
    </effect>
  </library_effects>
  <library_materials>
    <material id="mat_0">
      <instance_effect url="#effect_0"/>
    </material>
  </library_materials>
  <library_geometries>
    <geometry id="geometry_0">
      <mesh>
        <source id="pos_0">
          <float_array id="pos_0-array" count="3099">0 0 0 0.1498135 -0.007476883 0 0.1492546 -0.01493518 0 0.1483246 -0.02235634 0 0.1470259 -0.02972192 0 0.1453616 -0.03701361 0 0.1433359 -0.04421328 0 0.1409539 -0.05130302 0 0.1382214 -0.05826522 0 0.1351453 -0.06508256 0 0.1317332 -0.07173809 0 0.1279936 -0.07821528 0 0.1239358 -0.08449801 0 0.1195699 -0.09057066 0 0.1149067 -0.09641814 0 0.1099578 -0.1020259 0 0.1047355 -0.10738 0 0.09925287 -0.1124672 0 0.09352347 -0.1172747 0 0.08756155 -0.1217907 0 0.08138194 -0.1260039 0 0.075 -0.1299038 0 0.0684316 -0.1334808 0 0.06169306 -0.1367259 0 0.05480115 -0.1396311 0 0.047773 -0.1421891 0 0.04062607 -0.1443936 0 0.03337814 -0.1462392 0 0.02604723 -0.1477212 0 0.01865156 -0.1488359 0 0.01120951 -0.1495806 0 0.003739604 -0.1499534 0 -0.003739604 -0.1499534 0 -0.01120951 -0.1495806 0 -0.01865156 -0.1488359 0 -0.02604723 -0.1477212 0 -0.03337814 -0.1462392 0 -0.04062607 -0.1443936 0 -0.047773 -0.1421891 0 -0.05480115 -0.1396311 0 -0.06169306 -0.1367259 0 -0.0684316 -0.1334808 0 -0.075 -0.1299038 0 -0.08138194 -0.1260039 0 -0.08756155 -0.1217907 0 -0.09352347 -0.1172747 0 -0.09925287 -0.1124672 0 -0.1047355 -0.10738 0 -0.1099578 -0.1020259 0 -0.1149067 -0.09641814 0 -0.1195699 -0.09057066 0 -0.1239358 -0.08449801 0 -0.1279936 -0.07821528 0 -0.1317332 -0.07173809 0 -0.1351453 -0.06508256 0 -0.1382214 -0.05826522 0 -0.1409539 -0.05130302 0 -0.1433359 -0.04421328 0 -0.1453616 -0.03701361 0 -0.1470259 -0.02972192 0 -0.1483246 -0.02235634 0 -0.1492546 -0.01493518 0 -0.1498135 -0.007476883 0 -0.15 0 0 -0.1498135 0.007476883 0 -0.1492546 0.01493518 0 -0.1483246 0.02235634 0 -0.1470259 0.02972192 0 -0.1453616 0.03701361 0 -0.1433359 0.04421328 0 -0.1409539 0.05130302 0 -0.1382214 0.05826522 0 -0.1351453 0.06508256 0 -0.1317332 0.07173809 0 -0.1279936 0.07821528 0 -0.1239358 0.08449801 0 -0.1195699 0.09057066 0 -0.1149067 0.09641814 0 -0.1099578 0.1020259 0 -0.1047355 0.10738 0 -0.09925287 0.1124672 0 -0.09352347 0.1172747 0 -0.08756155 0.1217907 0 -0.08138194 0.1260039 0 -0.075 0.1299038 0 -0.0684316 0.1334808 0 -0.06169306 0.1367259 0 -0.05480115 0.1396311 0 -0.047773 0.1421891 0 -0.04062607 0.1443936 0 -0.03337814 0.1462392 0 -0.02604723 0.1477212 0 -0.01865156 0.1488359 0 -0.01120951 0.1495806 0 -0.003739604 0.1499534 0 0.003739604 0.1499534 0 0.01120951 0.1495806 0 0.01865156 0.1488359 0 0.02604723 0.1477212 0 0.03337814 0.1462392 0 0.04062607 0.1443936 0 0.047773 0.1421891 0 0.05480115 0.1396311 0 0.06169306 0.1367259 0 0.0684316 0.1334808 0 0.075 0.1299038 0 0.08138194 0.1260039 0 0.08756155 0.1217907 0 0.09352347 0.1172747 0 0.09925287 0.1124672 0 0.1047355 0.10738 0 0.1099578 0.1020259 0 0.1149067 0.09641814 0 0.1195699 0.09057066 0 0.1239358 0.08449801 0 0.1279936 0.07821528 0 0.1317332 0.07173809 0 0.1351453 0.06508256 0 0.1382214 0.05826522 0 0.1409539 0.05130302 0 0.1433359 0.04421328 0 0.1453616 0.03701361 0 0.1470259 0.02972192 0 0.1483246 0.02235634 0 0.1492546 0.01493518 0 0.1498135 0.007476883 0 0.15 1.83697E-17 0 -0.15 0 0.03 -0.1498135 0.007476883 0.03 -0.1492546 0.01493518 0.03 -0.1483246 0.02235634 0.03 -0.1470259 0.02972192 0.03 -0.1453616 0.03701361 0.03 -0.1433359 0.04421328 0.03 -0.1409539 0.05130302 0.03 -0.1382214 0.05826522 0.03 -0.1351453 0.06508256 0.03 -0.1317332 0.07173809 0.03 -0.1279936 0.07821528 0.03 -0.1239358 0.08449801 0.03 -0.1195699 0.09057066 0.03 -0.1149067 0.09641814 0.03 -0.1099578 0.1020259 0.03 -0.1047355 0.10738 0.03 -0.09925287 0.1124672 0.03 -0.09352347 0.1172747 0.03 -0.08756155 0.1217907 0.03 -0.08138194 0.1260039 0.03 -0.075 0.1299038 0.03 -0.0684316 0.1334808 0.03 -0.06169306 0.1367259 0.03 -0.05480115 0.1396311 0.03 -0.047773 0.1421891 0.03 -0.04062607 0.1443936 0.03 -0.03337814 0.1462392 0.03 -0.02604723 0.1477212 0.03 -0.01865156 0.1488359 0.03 -0.01120951 0.1495806 0.03 -0.003739604 0.1499534 0.03 0.003739604 0.1499534 0.03 0.01120951 0.1495806 0.03 0.01865156 0.1488359 0.03 0.02604723 0.1477212 0.03 0.03337814 0.1462392 0.03 0.04062607 0.1443936 0.03 0.047773 0.1421891 0.03 0.05480115 0.1396311 0.03 0.06169306 0.1367259 0.03 0.0684316 0.1334808 0.03 0.075 0.1299038 0.03 0.08138194 0.1260039 0.03 0.08756155 0.1217907 0.03 0.09352347 0.1172747 0.03 0.09925287 0.1124672 0.03 0.1047355 0.10738 0.03 0.1099578 0.1020259 0.03 0.1149067 0.09641814 0.03 0.1195699 0.09057066 0.03 0.1239358 0.08449801 0.03 0.1279936 0.07821528 0.03 0.1317332 0.07173809 0.03 0.1351453 0.06508256 0.03 0.1382214 0.05826522 0.03 0.1409539 0.05130302 0.03 0.1433359 0.04421328 0.03 0.1453616 0.03701361 0.03 0.1470259 0.02972192 0.03 0.1483246 0.02235634 0.03 0.1492546 0.01493518 0.03 0.1498135 0.007476883 0.03 0.15 5.510911E-17 0.03 0.1498135 -0.007476883 0.03 0.1492546 -0.01493518 0.03 0.1483246 -0.02235634 0.03 0.1470259 -0.02972192 0.03 0.1453616 -0.03701361 0.03 0.1433359 -0.04421328 0.03 0.1409539 -0.05130302 0.03 0.1382214 -0.05826522 0.03 0.1351453 -0.06508256 0.03 0.1317332 -0.07173809 0.03 0.1279936 -0.07821528 0.03 0.1239358 -0.08449801 0.03 0.1195699 -0.09057066 0.03 0.1149067 -0.09641814 0.03 0.1099578 -0.1020259 0.03 0.1047355 -0.10738 0.03 0.09925287 -0.1124672 0.03 0.09352347 -0.1172747 0.03 0.08756155 -0.1217907 0.03 0.08138194 -0.1260039 0.03 0.075 -0.1299038 0.03 0.0684316 -0.1334808 0.03 0.06169306 -0.1367259 0.03 0.05480115 -0.1396311 0.03 0.047773 -0.1421891 0.03 0.04062607 -0.1443936 0.03 0.03337814 -0.1462392 0.03 0.02604723 -0.1477212 0.03 0.01865156 -0.1488359 0.03 0.01120951 -0.1495806 0.03 0.003739604 -0.1499534 0.03 -0.003739604 -0.1499534 0.03 -0.01120951 -0.1495806 0.03 -0.01865156 -0.1488359 0.03 -0.02604723 -0.1477212 0.03 -0.03337814 -0.1462392 0.03 -0.04062607 -0.1443936 0.03 -0.047773 -0.1421891 0.03 -0.05480115 -0.1396311 0.03 -0.06169306 -0.1367259 0.03 -0.0684316 -0.1334808 0.03 -0.075 -0.1299038 0.03 -0.08138194 -0.1260039 0.03 -0.08756155 -0.1217907 0.03 -0.09352347 -0.1172747 0.03 -0.09925287 -0.1124672 0.03 -0.1047355 -0.10738 0.03 -0.1099578 -0.1020259 0.03 -0.1149067 -0.09641814 0.03 -0.1195699 -0.09057066 0.03 -0.1239358 -0.08449801 0.03 -0.1279936 -0.07821528 0.03 -0.1317332 -0.07173809 0.03 -0.1351453 -0.06508256 0.03 -0.1382214 -0.05826522 0.03 -0.1409539 -0.05130302 0.03 -0.1433359 -0.04421328 0.03 -0.1453616 -0.03701361 0.03 -0.1470259 -0.02972192 0.03 -0.1483246 -0.02235634 0.03 -0.1492546 -0.01493518 0.03 -0.1498135 -0.007476883 0.03 0.01149067 0.009641814 0.03 0.01195699 0.009057066 0.03 0.01099578 0.01020259 0.03 0.01047355 0.010738 0.03 0.009925287 0.01124672 0.03 0.008756155 0.01217907 0.03 0.009352347 0.01172747 0.03 0.008138194 0.01260039 0.03 0.0075 0.01299038 0.03 0.00684316 0.01334808 0.03 0.006169307 0.01367259 0.03 0.005480115 0.01396311 0.03 0.0003739604 0.01499534 0.03 0.001120951 0.01495806 0.03 -0.0003739604 0.01499534 0.03 0.0047773 0.01421891 0.03 0.002604723 0.01477212 0.03 0.003337814 0.01462392 0.03 0.001865156 0.01488359 0.03 -0.001120951 0.01495806 0.03 -0.001865156 0.01488359 0.03 -0.002604723 0.01477212 0.03 0.01279936 0.007821528 0.03 0.01317332 0.00717381 0.03 0.01239358 0.008449801 0.03 0.004062607 0.01443936 0.03 -0.01483246 0.002235634 0.03 -0.01470259 0.002972192 0.03 -0.01492546 0.001493518 0.03 0.01351453 0.006508256 0.03 0.01382214 0.005826522 0.03 -0.01453616 0.003701361 0.03 -0.01498135 0.0007476883 0.03 -0.015 0 0.03 -0.01498135 -0.0007476883 0.03 -0.01492546 -0.001493518 0.03 -0.01483246 -0.002235634 0.03 -0.01470259 -0.002972192 0.03 0.01453616 0.003701361 0.03 0.01470259 0.002972192 0.03 0.01433359 0.004421328 0.03 0.01409539 0.005130302 0.03 -0.0075 0.01299038 0.03 -0.00684316 0.01334808 0.03 -0.008138194 0.01260039 0.03 -0.01279936 0.007821528 0.03 -0.01239358 0.008449801 0.03 -0.01317332 0.00717381 0.03 -0.01433359 -0.004421328 0.03 -0.01453616 -0.003701361 0.03 -0.01409539 -0.005130302 0.03 -0.003337814 0.01462392 0.03 -0.004062607 0.01443936 0.03 -0.005480115 0.01396311 0.03 -0.0047773 0.01421891 0.03 -0.006169307 0.01367259 0.03 -0.008756155 0.01217907 0.03 -0.009352347 0.01172747 0.03 -0.009925287 0.01124672 0.03 -0.01195699 0.009057066 0.03 -0.01382214 0.005826522 0.03 -0.01351453 0.006508256 0.03 -0.01409539 0.005130302 0.03 -0.01433359 0.004421328 0.03 -0.004062607 -0.01443936 0.03 -0.0047773 -0.01421891 0.03 -0.003337814 -0.01462392 0.03 -0.002604723 -0.01477212 0.03 -0.001865156 -0.01488359 0.03 -0.0003739604 -0.01499534 0.03 -0.001120951 -0.01495806 0.03 0.0003739604 -0.01499534 0.03 0.001120951 -0.01495806 0.03 0.001865156 -0.01488359 0.03 -0.01382214 -0.005826522 0.03 -0.01351453 -0.006508256 0.03 -0.009352347 -0.01172747 0.03 -0.009925287 -0.01124672 0.03 -0.008756155 -0.01217907 0.03 0.002604723 -0.01477212 0.03 0.003337814 -0.01462392 0.03 0.01279936 -0.007821528 0.03 0.01239358 -0.008449801 0.03 0.01317332 -0.00717381 0.03 0.01382214 -0.005826522 0.03 0.01351453 -0.006508256 0.03 0.01409539 -0.005130302 0.03 0.01498135 0.0007476883 0.03 0.015 1.83697E-18 0.03 0.01492546 0.001493518 0.03 0.01483246 0.002235634 0.03 -0.01149067 -0.009641814 0.03 -0.01195699 -0.009057066 0.03 -0.01099578 -0.01020259 0.03 -0.01047355 -0.010738 0.03 -0.008138194 -0.01260039 0.03 -0.0075 -0.01299038 0.03 -0.00684316 -0.01334808 0.03 0.00684316 -0.01334808 0.03 0.006169307 -0.01367259 0.03 0.0075 -0.01299038 0.03 0.01433359 -0.004421328 0.03 0.01453616 -0.003701361 0.03 -0.01317332 -0.00717381 0.03 -0.01279936 -0.007821528 0.03 -0.01239358 -0.008449801 0.03 -0.006169307 -0.01367259 0.03 -0.005480115 -0.01396311 0.03 0.008138194 -0.01260039 0.03 0.01047355 -0.010738 0.03 0.009925287 -0.01124672 0.03 0.01099578 -0.01020259 0.03 0.01149067 -0.009641814 0.03 0.01195699 -0.009057066 0.03 0.01470259 -0.002972192 0.03 -0.01047355 0.010738 0.03 -0.01099578 0.01020259 0.03 0.004062607 -0.01443936 0.03 0.0047773 -0.01421891 0.03 0.005480115 -0.01396311 0.03 0.008756155 -0.01217907 0.03 0.009352347 -0.01172747 0.03 0.01483246 -0.002235634 0.03 0.01492546 -0.001493518 0.03 0.01498135 -0.0007476883 0.03 -0.01149067 0.009641814 0.03 -0.015 -3.67394E-18 1.5 -0.01498135 0.0007476883 1.5 -0.01492546 0.001493518 1.5 -0.01483246 0.002235634 1.5 -0.01470259 0.002972192 1.5 -0.01453616 0.003701361 1.5 -0.01433359 0.004421328 1.5 -0.01409539 0.005130302 1.5 -0.01382214 0.005826522 1.5 -0.01351453 0.006508256 1.5 -0.01317332 0.00717381 1.5 -0.01279936 0.007821528 1.5 -0.01239358 0.008449801 1.5 -0.01195699 0.009057066 1.5 -0.01149067 0.009641814 1.5 -0.01099578 0.01020259 1.5 -0.01047355 0.010738 1.5 -0.009925287 0.01124672 1.5 -0.009352347 0.01172747 1.5 -0.008756155 0.01217907 1.5 -0.008138194 0.01260039 1.5 -0.0075 0.01299038 1.5 -0.00684316 0.01334808 1.5 -0.006169307 0.01367259 1.5 -0.005480115 0.01396311 1.5 -0.0047773 0.01421891 1.5 -0.004062607 0.01443936 1.5 -0.003337814 0.01462392 1.5 -0.002604723 0.01477212 1.5 -0.001865156 0.01488359 1.5 -0.001120951 0.01495806 1.5 -0.0003739604 0.01499534 1.5 0.0003739604 0.01499534 1.5 0.001120951 0.01495806 1.5 0.001865156 0.01488359 1.5 0.002604723 0.01477212 1.5 0.003337814 0.01462392 1.5 0.004062607 0.01443936 1.5 0.0047773 0.01421891 1.5 0.005480115 0.01396311 1.5 0.006169307 0.01367259 1.5 0.00684316 0.01334808 1.5 0.0075 0.01299038 1.5 0.008138194 0.01260039 1.5 0.008756155 0.01217907 1.5 0.009352347 0.01172747 1.5 0.009925287 0.01124672 1.5 0.01047355 0.010738 1.5 0.01099578 0.01020259 1.5 0.01149067 0.009641814 1.5 0.01195699 0.009057066 1.5 0.01239358 0.008449801 1.5 0.01279936 0.007821528 1.5 0.01317332 0.00717381 1.5 0.01351453 0.006508256 1.5 0.01382214 0.005826522 1.5 0.01409539 0.005130302 1.5 0.01433359 0.004421328 1.5 0.01453616 0.003701361 1.5 0.01470259 0.002972192 1.5 0.01483246 0.002235634 1.5 0.01492546 0.001493518 1.5 0.01498135 0.0007476883 1.5 0.015 1.83697E-18 1.5 0.01498135 -0.0007476883 1.5 0.01492546 -0.001493518 1.5 0.01483246 -0.002235634 1.5 0.01470259 -0.002972192 1.5 0.01453616 -0.003701361 1.5 0.01433359 -0.004421328 1.5 0.01409539 -0.005130302 1.5 0.01382214 -0.005826522 1.5 0.01351453 -0.006508256 1.5 0.01317332 -0.00717381 1.5 0.01279936 -0.007821528 1.5 0.01239358 -0.008449801 1.5 0.01195699 -0.009057066 1.5 0.01149067 -0.009641814 1.5 0.01099578 -0.01020259 1.5 0.01047355 -0.010738 1.5 0.009925287 -0.01124672 1.5 0.009352347 -0.01172747 1.5 0.008756155 -0.01217907 1.5 0.008138194 -0.01260039 1.5 0.0075 -0.01299038 1.5 0.00684316 -0.01334808 1.5 0.006169307 -0.01367259 1.5 0.005480115 -0.01396311 1.5 0.0047773 -0.01421891 1.5 0.004062607 -0.01443936 1.5 0.003337814 -0.01462392 1.5 0.002604723 -0.01477212 1.5 0.001865156 -0.01488359 1.5 0.001120951 -0.01495806 1.5 0.0003739604 -0.01499534 1.5 -0.0003739604 -0.01499534 1.5 -0.001120951 -0.01495806 1.5 -0.001865156 -0.01488359 1.5 -0.002604723 -0.01477212 1.5 -0.003337814 -0.01462392 1.5 -0.004062607 -0.01443936 1.5 -0.0047773 -0.01421891 1.5 -0.005480115 -0.01396311 1.5 -0.006169307 -0.01367259 1.5 -0.00684316 -0.01334808 1.5 -0.0075 -0.01299038 1.5 -0.008138194 -0.01260039 1.5 -0.008756155 -0.01217907 1.5 -0.009352347 -0.01172747 1.5 -0.009925287 -0.01124672 1.5 -0.01047355 -0.010738 1.5 -0.01099578 -0.01020259 1.5 -0.01149067 -0.009641814 1.5 -0.01195699 -0.009057066 1.5 -0.01239358 -0.008449801 1.5 -0.01279936 -0.007821528 1.5 -0.01317332 -0.00717381 1.5 -0.01351453 -0.006508256 1.5 -0.01382214 -0.005826522 1.5 -0.01409539 -0.005130302 1.5 -0.01433359 -0.004421328 1.5 -0.01453616 -0.003701361 1.5 -0.01470259 -0.002972192 1.5 -0.01483246 -0.002235634 1.5 -0.01492546 -0.001493518 1.5 -0.01498135 -0.0007476883 1.5 0 0 1.5 -0.02077475 0 1.520502 0 0 1.52 0 0.03 1.52 -0.04150099 0 1.522007 -0.02077475 0.03 1.520502 -0.06213029 0 1.524512 -0.04150099 0.03 1.522007 -0.08261449 0 1.528011 -0.06213029 0.03 1.524512 -0.1029057 0 1.532495 -0.08261449 0.03 1.528011 -0.1229566 0 1.537954 -0.1029057 0.03 1.532495 -0.1427204 0 1.544376 -0.1229566 0.03 1.537954 -0.1621508 0 1.551745 -0.1427204 0.03 1.544376 -0.1812025 0 1.560044 -0.1621508 0.03 1.551745 -0.199831 0 1.569254 -0.1812025 0.03 1.560044 -0.2179927 0 1.579353 -0.199831 0.03 1.569254 -0.2356454 0 1.590318 -0.2179927 0.03 1.579353 -0.2527477 0 1.602123 -0.2356454 0.03 1.590318 -0.2692596 0 1.61474 -0.2527477 0.03 1.602123 -0.2851427 0 1.62814 -0.2692596 0.03 1.61474 -0.3003599 0 1.642292 -0.2851427 0.03 1.62814 -0.3148755 0 1.657163 -0.3003599 0.03 1.642292 -0.3286557 0 1.672718 -0.3148755 0.03 1.657163 -0.3416684 0 1.68892 -0.3286557 0.03 1.672718 -0.3538831 0 1.705732 -0.3416684 0.03 1.68892 -0.3652712 0 1.723115 -0.3538831 0.03 1.705732 -0.3758062 0 1.741027 -0.3652712 0.03 1.723115 -0.3854636 0 1.759428 -0.3758062 0.03 1.741027 -0.3942207 0 1.778273 -0.3854636 0.03 1.759428 -0.402057 0 1.79752 -0.3942207 0.03 1.778273 -0.4089543 0 1.817123 -0.402057 0.03 1.79752 -0.4148965 0 1.837036 -0.4089543 0.03 1.817123 -0.4198697 0 1.857213 -0.4148965 0.03 1.837036 -0.4238622 0 1.877607 -0.4198697 0.03 1.857213 -0.4268648 0 1.898169 -0.4238622 0.03 1.877607 -0.4288704 0 1.918853 -0.4268648 0.03 1.898169 -0.4298744 0 1.93961 -0.4288704 0.03 1.918853 -0.4298744 0 1.96039 -0.4298744 0.03 1.93961 -0.4288704 0 1.981147 -0.4298744 0.03 1.96039 -0.4268648 0 2.001831 -0.4288704 0.03 1.981147 -0.4238622 0 2.022393 -0.4268648 0.03 2.001831 -0.4198697 0 2.042787 -0.4238622 0.03 2.022393 -0.4148965 0 2.062964 -0.4198697 0.03 2.042787 -0.4089543 0 2.082877 -0.4148965 0.03 2.062964 -0.402057 0 2.10248 -0.4089543 0.03 2.082877 -0.3942207 0 2.121727 -0.402057 0.03 2.10248 -0.3854636 0 2.140572 -0.3942207 0.03 2.121727 -0.3758062 0 2.158973 -0.3854636 0.03 2.140572 -0.3652712 0 2.176885 -0.3758062 0.03 2.158973 -0.3538831 0 2.194268 -0.3652712 0.03 2.176885 -0.3416684 0 2.21108 -0.3538831 0.03 2.194268 -0.3286557 0 2.227282 -0.3416684 0.03 2.21108 -0.3148755 0 2.242837 -0.3286557 0.03 2.227282 -0.3003599 0 2.257708 -0.3148755 0.03 2.242837 -0.2851427 0 2.27186 -0.3003599 0.03 2.257708 -0.2692596 0 2.28526 -0.2851427 0.03 2.27186 -0.2527477 0 2.297877 -0.2692596 0.03 2.28526 -0.2356454 0 2.309682 -0.2527477 0.03 2.297877 -0.2179927 0 2.320647 -0.2356454 0.03 2.309682 -0.199831 0 2.330746 -0.2179927 0.03 2.320647 -0.1812025 0 2.339956 -0.199831 0.03 2.330746 -0.1621508 0 2.348255 -0.1812025 0.03 2.339956 -0.1427204 0 2.355624 -0.1621508 0.03 2.348255 -0.1229566 0 2.362046 -0.1427204 0.03 2.355624 -0.1029057 0 2.367505 -0.1229566 0.03 2.362046 -0.08261449 0 2.371989 -0.1029057 0.03 2.367505 -0.06213029 0 2.375488 -0.08261449 0.03 2.371989 -0.04150099 0 2.377993 -0.06213029 0.03 2.375488 -0.02077475 0 2.379498 -0.04150099 0.03 2.377993 1.579794E-16 0 2.38 -0.02077475 0.03 2.379498 0.02077475 0 2.379498 5.265981E-17 0.03 2.38 0.04150099 0 2.377993 0.02077475 0.03 2.379498 0.06213029 0 2.375488 0.04150099 0.03 2.377993 0.08261449 0 2.371989 0.06213029 0.03 2.375488 0.1029057 0 2.367505 0.08261449 0.03 2.371989 0.1229566 0 2.362046 0.1029057 0.03 2.367505 0.1427204 0 2.355624 0.1229566 0.03 2.362046 0.1621508 0 2.348255 0.1427204 0.03 2.355624 0.1812025 0 2.339956 0.1621508 0.03 2.348255 0.199831 0 2.330746 0.1812025 0.03 2.339956 0.2179927 0 2.320647 0.199831 0.03 2.330746 0.2356454 0 2.309682 0.2179927 0.03 2.320647 0.2527477 0 2.297877 0.2356454 0.03 2.309682 0.2692596 0 2.28526 0.2527477 0.03 2.297877 0.2851427 0 2.27186 0.2692596 0.03 2.28526 0.3003599 0 2.257708 0.2851427 0.03 2.27186 0.3148755 0 2.242837 0.3003599 0.03 2.257708 0.3286557 0 2.227282 0.3148755 0.03 2.242837 0.3416684 0 2.21108 0.3286557 0.03 2.227282 0.3538831 0 2.194268 0.3416684 0.03 2.21108 0.3652712 0 2.176885 0.3538831 0.03 2.194268 0.3758062 0 2.158973 0.3652712 0.03 2.176885 0.3854636 0 2.140572 0.3758062 0.03 2.158973 0.3942207 0 2.121727 0.3854636 0.03 2.140572 0.402057 0 2.10248 0.3942207 0.03 2.121727 0.4089543 0 2.082877 0.402057 0.03 2.10248 0.4148965 0 2.062964 0.4089543 0.03 2.082877 0.4198697 0 2.042787 0.4148965 0.03 2.062964 0.4238622 0 2.022393 0.4198697 0.03 2.042787 0.4268648 0 2.001831 0.4238622 0.03 2.022393 0.4288704 0 1.981147 0.4268648 0.03 2.001831 0.4298744 0 1.96039 0.4288704 0.03 1.981147 0.4298744 0 1.93961 0.4298744 0.03 1.96039 0.4288704 0 1.918853 0.4298744 0.03 1.93961 0.4268648 0 1.898169 0.4288704 0.03 1.918853 0.4238622 0 1.877607 0.4268648 0.03 1.898169 0.4198697 0 1.857213 0.4238622 0.03 1.877607 0.4148965 0 1.837036 0.4198697 0.03 1.857213 0.4089543 0 1.817123 0.4148965 0.03 1.837036 0.402057 0 1.79752 0.4089543 0.03 1.817123 0.3942207 0 1.778273 0.402057 0.03 1.79752 0.3854636 0 1.759428 0.3942207 0.03 1.778273 0.3758062 0 1.741027 0.3854636 0.03 1.759428 0.3652712 0 1.723115 0.3758062 0.03 1.741027 0.3538831 0 1.705732 0.3652712 0.03 1.723115 0.3416684 0 1.68892 0.3538831 0.03 1.705732 0.3286557 0 1.672718 0.3416684 0.03 1.68892 0.3148755 0 1.657163 0.3286557 0.03 1.672718 0.3003599 0 1.642292 0.3148755 0.03 1.657163 0.2851427 0 1.62814 0.3003599 0.03 1.642292 0.2692596 0 1.61474 0.2851427 0.03 1.62814 0.2527477 0 1.602123 0.2692596 0.03 1.61474 0.2356454 0 1.590318 0.2527477 0.03 1.602123 0.2179927 0 1.579353 0.2356454 0.03 1.590318 0.199831 0 1.569254 0.2179927 0.03 1.579353 0.1812025 0 1.560044 0.199831 0.03 1.569254 0.1621508 0 1.551745 0.1812025 0.03 1.560044 0.1427204 0 1.544376 0.1621508 0.03 1.551745 0.1229566 0 1.537954 0.1427204 0.03 1.544376 0.1029057 0 1.532495 0.1229566 0.03 1.537954 0.08261449 0 1.528011 0.1029057 0.03 1.532495 0.06213029 0 1.524512 0.08261449 0.03 1.528011 0.04150099 0 1.522007 0.06213029 0.03 1.524512 0.02077475 0 1.520502 0.04150099 0.03 1.522007 0.02077475 0.03 1.520502 0.4497176 0.03 1.965941 0.4499686 0.03 1.944685 0.4462078 0.03 2.008298 0.448463 0.03 1.987161 0.4492156 0.03 1.923442 0.4447064 0.03 1.88118 0.4409602 0.03 1.860255 0.4387176 0.03 2.050134 0.4429569 0.03 2.029305 0.4474602 0.03 1.902258 0.3879278 0.03 1.721938 0.3767249 0.03 1.703873 0.3381819 0.03 1.653128 0.3237849 0.03 1.637489 0.3086655 0.03 1.622547 -0.3982651 0.03 1.740513 -0.4077136 0.03 1.759554 -0.4162524 0.03 1.779021 -0.4238624 0.03 1.798869 -0.4305266 0.03 1.819054 -0.4362301 0.03 1.839532 -0.4474602 0.03 1.902258 -0.4492156 0.03 1.923442 -0.4499686 0.03 1.944685 0.3450993 0.03 2.238802 0.3583528 0.03 2.222183 0.3708066 0.03 2.204956 0.4362301 0.03 1.839532 0.3982651 0.03 1.740513 0.3646814 0.03 1.686357 0.2928574 0.03 1.608336 -0.4409602 0.03 1.860255 -0.4497176 0.03 1.965941 -0.4334993 0.03 2.070741 -0.4273137 0.03 2.091078 -0.4201747 0.03 2.1111 0.382433 0.03 2.18716 0.412098 0.03 2.130763 0.4201747 0.03 2.1111 0.4273137 0.03 2.091078 0.4334993 0.03 2.070741 0.4305266 0.03 1.819054 0.4238624 0.03 1.798869 0.3518242 0.03 1.66943 -0.3879278 0.03 1.721938 -0.4447064 0.03 1.88118 -0.448463 0.03 1.987161 -0.4429569 0.03 2.029305 -0.4387176 0.03 2.050134 -0.412098 0.03 2.130763 -0.4031018 0.03 2.150022 -0.3932061 0.03 2.168835 -0.382433 0.03 2.18716 -0.3583528 0.03 2.222183 -0.3450993 0.03 2.238802 0.3932061 0.03 2.168835 0.4077136 0.03 1.759554 -0.3767249 0.03 1.703873 -0.4462078 0.03 2.008298 -0.3708066 0.03 2.204956 -0.3163135 0.03 2.270072 -0.3008454 0.03 2.284652 0.1952477 0.03 2.355436 0.2141763 0.03 2.345763 0.2326271 0.03 2.335207 0.4031018 0.03 2.150022 0.4162524 0.03 1.779021 0.2763957 0.03 1.594887 -0.3381819 0.03 1.653128 -0.3518242 0.03 1.66943 -0.3310758 0.03 2.254777 0.1360214 0.03 2.37895 0.1561266 0.03 2.372048 0.1758834 0.03 2.364204 0.2505587 0.03 2.323792 0.2679313 0.03 2.311542 0.2593173 0.03 1.58223 0.2416603 0.03 1.570395 0.0635634 0.03 1.504512 0.04245456 0.03 1.502007 0.02125099 0.03 1.500502 0 0.03 1.5 -0.02125099 0.03 1.500502 -0.223464 0.03 1.559406 -0.2416603 0.03 1.570395 -0.2593173 0.03 1.58223 -0.2763957 0.03 1.594887 -0.2928574 0.03 1.608336 -0.3086655 0.03 1.622547 -0.3237849 0.03 1.637489 0.1156127 0.03 2.384895 0.284706 0.03 2.298486 0.3008454 0.03 2.284652 0.3163135 0.03 2.270072 0.3310758 0.03 2.254777 0.223464 0.03 1.559406 0.2047691 0.03 1.549289 0.1856173 0.03 1.540066 -0.08453041 0.03 1.508011 -0.1053088 0.03 1.512496 -0.1856173 0.03 1.540066 -0.2047691 0.03 1.549289 -0.3646814 0.03 1.686357 0.1258522 0.03 1.517957 0.1053088 0.03 1.512496 0.08453041 0.03 1.508011 -0.04245456 0.03 1.502007 -0.0635634 0.03 1.504512 -0.1258522 0.03 1.517957 -0.1461148 0.03 1.524382 -0.1660513 0.03 1.531757 -0.1360214 0.03 2.37895 -0.1156127 0.03 2.384895 0.1660513 0.03 1.531757 0.1461148 0.03 1.524382 -0.1758834 0.03 2.364204 -0.1561266 0.03 2.372048 -0.09494609 0.03 2.38987 -0.2141763 0.03 2.345763 -0.1952477 0.03 2.355436 -0.2505587 0.03 2.323792 -0.2326271 0.03 2.335207 -0.05302377 0.03 2.396865 -0.03186167 0.03 2.398871 -0.284706 0.03 2.298486 -0.2679313 0.03 2.311542 -0.07406756 0.03 2.393862 0.07406756 0.03 2.393862 0.09494609 0.03 2.38987 -0.01062846 0.03 2.399874 0.01062846 0.03 2.399874 0.03186167 0.03 2.398871 0.05302377 0.03 2.396865 1.653273E-16 0.03 2.4 0.02125099 0 1.500502 0.04245456 0 1.502007 0.0635634 0 1.504512 0.08453041 0 1.508011 0.1053088 0 1.512496 0.1258522 0 1.517957 0.1461148 0 1.524382 0.1660513 0 1.531757 0.1856173 0 1.540066 0.2047691 0 1.549289 0.223464 0 1.559406 0.2416603 0 1.570395 0.2593173 0 1.58223 0.2763957 0 1.594887 0.2928574 0 1.608336 0.3086655 0 1.622547 0.3237849 0 1.637489 0.3381819 0 1.653128 0.3518242 0 1.66943 0.3646814 0 1.686357 0.3767249 0 1.703873 0.3879278 0 1.721938 0.3982651 0 1.740513 0.4077136 0 1.759554 0.4162524 0 1.779021 0.4238624 0 1.798869 0.4305266 0 1.819054 0.4362301 0 1.839532 0.4409602 0 1.860255 0.4447064 0 1.88118 0.4474602 0 1.902258 0.4492156 0 1.923442 0.4499686 0 1.944685 0.4497176 0 1.965941 0.448463 0 1.987161 0.4462078 0 2.008298 0.4429569 0 2.029305 0.4387176 0 2.050134 0.4334993 0 2.070741 0.4273137 0 2.091078 0.4201747 0 2.1111 0.412098 0 2.130763 0.4031018 0 2.150022 0.3932061 0 2.168835 0.382433 0 2.18716 0.3708066 0 2.204956 0.3583528 0 2.222183 0.3450993 0 2.238802 0.3310758 0 2.254777 0.3163135 0 2.270072 0.3008454 0 2.284652 0.284706 0 2.298486 0.2679313 0 2.311542 0.2505587 0 2.323792 0.2326271 0 2.335207 0.2141763 0 2.345763 0.1952477 0 2.355436 0.1758834 0 2.364204 0.1561266 0 2.372048 0.1360214 0 2.37895 0.1156127 0 2.384895 0.09494609 0 2.38987 0.07406756 0 2.393862 0.05302377 0 2.396865 0.03186167 0 2.398871 -0.01062846 0 2.399874 5.510911E-17 0 2.4 0.01062846 0 2.399874 -0.03186167 0 2.398871 -0.05302377 0 2.396865 -0.07406756 0 2.393862 -0.09494609 0 2.38987 -0.1156127 0 2.384895 -0.1360214 0 2.37895 -0.1561266 0 2.372048 -0.1758834 0 2.364204 -0.1952477 0 2.355436 -0.2141763 0 2.345763 -0.2326271 0 2.335207 -0.2505587 0 2.323792 -0.2679313 0 2.311542 -0.284706 0 2.298486 -0.3008454 0 2.284652 -0.3163135 0 2.270072 -0.3310758 0 2.254777 -0.3450993 0 2.238802 -0.3583528 0 2.222183 -0.3708066 0 2.204956 -0.382433 0 2.18716 -0.3932061 0 2.168835 -0.4031018 0 2.150022 -0.412098 0 2.130763 -0.4201747 0 2.1111 -0.4273137 0 2.091078 -0.4334993 0 2.070741 -0.4387176 0 2.050134 -0.4429569 0 2.029305 -0.4462078 0 2.008298 -0.448463 0 1.987161 -0.4497176 0 1.965941 -0.4499686 0 1.944685 -0.4492156 0 1.923442 -0.4474602 0 1.902258 -0.4447064 0 1.88118 -0.4409602 0 1.860255 -0.4362301 0 1.839532 -0.4305266 0 1.819054 -0.4238624 0 1.798869 -0.4162524 0 1.779021 -0.4077136 0 1.759554 -0.3982651 0 1.740513 -0.3879278 0 1.721938 -0.3767249 0 1.703873 -0.3646814 0 1.686357 -0.3518242 0 1.66943 -0.3381819 0 1.653128 -0.3237849 0 1.637489 -0.3086655 0 1.622547 -0.2928574 0 1.608336 -0.2763957 0 1.594887 -0.2593173 0 1.58223 -0.2416603 0 1.570395 -0.223464 0 1.559406 -0.2047691 0 1.549289 -0.1856173 0 1.540066 -0.1660513 0 1.531757 -0.1461148 0 1.524382 -0.1258522 0 1.517957 -0.1053088 0 1.512496 -0.08453041 0 1.508011 -0.0635634 0 1.504512 -0.04245456 0 1.502007 -0.02125099 0 1.500502</float_array>
          <technique_common>
            <accessor source="#pos_0-array" count="1033" stride="3">
              <param name="X" type="float"/>
              <param name="Y" type="float"/>
              <param name="Z" type="float"/>
            </accessor>
          </technique_common>
        </source>
        <vertices id="vert_0">
          <input semantic="POSITION" source="#pos_0"/>
        </vertices>
        <triangles count="2064" material="mat_0Sb">
          <input semantic="VERTEX" source="#vert_0" offset="0"/>
          <p>0 1 2 2 3 0 3 4 0 4 5 0 5 6 0 6 7 0 7 8 0 8 9 0 9 10 0 10 11 0 11 12 0 12 13 0 13 14 0 14 15 0 15 16 0 16 17 0 17 18 0 18 19 0 19 20 0 20 21 0 21 22 0 22 23 0 23 24 0 24 25 0 25 26 0 26 27 0 27 28 0 28 29 0 29 30 0 30 31 0 31 32 0 32 33 0 33 34 0 34 35 0 35 36 0 36 37 0 37 38 0 38 39 0 39 40 0 40 41 0 41 42 0 42 43 0 43 44 0 44 45 0 45 46 0 46 47 0 47 48 0 48 49 0 49 50 0 50 51 0 51 52 0 52 53 0 53 54 0 54 55 0 55 56 0 56 57 0 57 58 0 58 59 0 59 60 0 60 61 0 61 62 0 62 63 0 63 64 0 64 65 0 65 66 0 66 67 0 67 68 0 68 69 0 69 70 0 70 71 0 71 72 0 72 73 0 73 74 0 74 75 0 75 76 0 76 77 0 77 78 0 78 79 0 79 80 0 80 81 0 81 82 0 82 83 0 83 84 0 84 85 0 85 86 0 86 87 0 87 88 0 88 89 0 89 90 0 90 91 0 91 92 0 92 93 0 93 94 0 94 95 0 95 96 0 96 97 0 97 98 0 98 99 0 99 100 0 100 101 0 101 102 0 102 103 0 103 104 0 104 105 0 105 106 0 106 107 0 107 108 0 108 109 0 109 110 0 110 111 0 111 112 0 112 113 0 113 114 0 114 115 0 115 116 0 116 117 0 117 118 0 118 119 0 119 120 0 120 121 0 121 122 0 122 123 0 123 124 0 124 125 0 125 126 0 126 1 0 63 127 128 64 128 129 65 129 130 66 130 131 67 131 132 68 132 133 69 133 134 70 134 135 71 135 136 72 136 137 73 137 138 74 138 139 75 139 140 76 140 141 77 141 142 78 142 143 79 143 144 80 144 145 81 145 146 82 146 147 83 147 148 84 148 149 85 149 150 86 150 151 87 151 152 88 152 153 89 153 154 90 154 155 91 155 156 92 156 157 93 157 158 94 158 159 95 159 160 96 160 161 97 161 162 98 162 163 99 163 164 100 164 165 101 165 166 102 166 167 103 167 168 104 168 169 105 169 170 106 170 171 107 171 172 108 172 173 109 173 174 110 174 175 111 175 176 112 176 177 113 177 178 114 178 179 115 179 180 116 180 181 117 181 182 118 182 183 119 183 184 120 184 185 121 185 186 122 186 187 123 187 188 124 188 189 125 189 190 126 190 191 1 191 192 2 192 193 3 193 194 4 194 195 5 195 196 6 196 197 7 197 198 8 198 199 9 199 200 10 200 201 11 201 202 12 202 203 13 203 204 14 204 205 15 205 206 16 206 207 17 207 208 18 208 209 19 209 210 20 210 211 21 211 212 22 212 213 23 213 214 24 214 215 25 215 216 26 216 217 27 217 218 28 218 219 29 219 220 30 220 221 31 221 222 32 222 223 33 223 224 34 224 225 35 225 226 36 226 227 37 227 228 38 228 229 39 229 230 40 230 231 41 231 232 42 232 233 43 233 234 44 234 235 45 235 236 46 236 237 47 237 238 48 238 239 49 239 240 50 240 241 51 241 242 52 242 243 53 243 244 54 244 245 55 245 246 56 246 247 57 247 248 58 248 249 59 249 250 60 250 251 61 251 252 62 252 127 127 63 62 252 62 61 251 61 60 250 60 59 249 59 58 248 58 57 247 57 56 246 56 55 245 55 54 244 54 53 243 53 52 242 52 51 241 51 50 240 50 49 239 49 48 238 48 47 237 47 46 236 46 45 235 45 44 234 44 43 233 43 42 232 42 41 231 41 40 230 40 39 229 39 38 228 38 37 227 37 36 226 36 35 225 35 34 224 34 33 223 33 32 222 32 31 221 31 30 220 30 29 219 29 28 218 28 27 217 27 26 216 26 25 215 25 24 214 24 23 213 23 22 212 22 21 211 21 20 210 20 19 209 19 18 208 18 17 207 17 16 206 16 15 205 15 14 204 14 13 203 13 12 202 12 11 201 11 10 200 10 9 199 9 8 198 8 7 197 7 6 196 6 5 195 5 4 194 4 3 193 3 2 192 2 1 191 1 126 190 126 125 189 125 124 188 124 123 187 123 122 186 122 121 185 121 120 184 120 119 183 119 118 182 118 117 181 117 116 180 116 115 179 115 114 178 114 113 177 113 112 176 112 111 175 111 110 174 110 109 173 109 108 172 108 107 171 107 106 170 106 105 169 105 104 168 104 103 167 103 102 166 102 101 165 101 100 164 100 99 163 99 98 162 98 97 161 97 96 160 96 95 159 95 94 158 94 93 157 93 92 156 92 91 155 91 90 154 90 89 153 89 88 152 88 87 151 87 86 150 86 85 149 85 84 148 84 83 147 83 82 146 82 81 145 81 80 144 80 79 143 79 78 142 78 77 141 77 76 140 76 75 139 75 74 138 74 73 137 73 72 136 72 71 135 71 70 134 70 69 133 69 68 132 68 67 131 67 66 130 66 65 129 65 64 128 64 63 176 253 254 176 175 255 175 174 256 174 173 257 171 258 259 171 170 260 255 253 176 257 256 174 260 258 171 170 169 261 256 255 175 172 259 257 261 260 170 169 168 262 167 263 262 166 264 263 159 265 266 158 267 265 257 173 172 262 261 169 263 167 166 166 165 268 162 269 270 162 161 271 265 159 158 158 157 272 157 156 273 156 155 274 179 275 276 179 178 277 259 172 171 268 264 166 164 278 268 164 163 270 271 269 162 160 266 271 272 267 158 274 273 156 130 279 280 130 129 281 181 282 283 181 180 276 277 275 179 178 177 254 262 168 167 270 278 164 271 161 160 273 272 157 131 280 284 281 279 130 128 285 281 128 127 286 252 287 286 252 251 288 251 250 289 250 249 290 185 291 292 185 184 293 183 294 293 183 182 283 276 282 181 254 277 178 268 165 164 266 160 159 148 295 296 148 147 297 138 298 299 138 137 300 280 131 130 286 285 128 288 287 252 290 289 250 247 301 302 247 246 303 293 291 185 283 294 183 276 180 179 270 163 162 154 304 274 154 153 305 151 306 307 151 150 308 297 295 148 146 309 297 145 310 309 145 144 311 139 299 312 300 298 138 135 313 314 134 315 313 133 316 315 133 132 284 281 129 128 289 288 251 248 302 290 303 301 247 227 317 318 227 226 319 226 225 320 225 224 321 222 322 323 222 221 324 221 220 325 220 219 326 293 184 183 254 177 176 305 304 154 153 152 307 308 306 151 150 149 296 297 147 146 311 310 145 299 139 138 137 136 314 313 135 134 284 316 133 286 127 252 302 248 247 245 327 303 245 244 328 235 329 330 235 234 331 319 317 227 321 320 225 324 322 222 326 325 220 218 332 326 218 217 333 201 334 335 201 200 336 198 337 338 198 197 339 189 340 341 189 188 342 188 187 343 187 186 292 283 182 181 307 305 153 296 308 150 309 146 145 314 300 137 315 134 133 290 249 248 328 327 245 239 344 345 239 238 346 238 237 347 237 236 330 331 329 235 234 233 348 232 349 348 232 231 350 320 319 226 223 323 321 325 324 221 333 332 218 212 351 352 211 353 351 203 202 335 336 334 201 200 199 338 339 337 198 196 354 339 196 195 355 342 340 189 292 343 187 274 155 154 296 149 148 314 136 135 303 246 245 243 356 328 243 242 357 241 358 357 241 240 345 346 344 239 330 347 237 348 331 234 350 349 232 230 359 350 230 229 360 321 224 223 326 219 218 351 212 211 211 210 361 206 362 363 205 364 362 204 365 364 204 203 366 335 202 201 338 199 198 355 354 196 195 194 367 343 342 188 307 152 151 143 368 311 143 142 369 284 132 131 357 356 243 345 358 241 347 346 238 348 233 232 360 359 230 228 318 360 323 223 222 216 370 333 216 215 371 214 372 371 214 213 352 361 353 211 210 209 373 208 374 373 208 207 363 362 206 205 366 365 204 338 336 200 367 355 195 193 375 367 192 376 375 191 377 376 191 190 341 292 186 185 369 368 143 141 378 369 141 140 312 328 244 243 345 240 239 350 231 230 318 228 227 371 370 216 352 372 214 373 361 210 363 374 208 364 205 204 339 197 196 375 193 192 341 377 191 311 144 143 312 378 141 357 242 241 360 229 228 371 215 214 373 209 208 335 366 203 376 192 191 369 142 141 330 236 235 352 213 212 367 194 193 312 140 139 363 207 206 333 217 216 341 190 189 286 379 380 285 380 381 281 381 382 279 382 383 280 383 384 284 384 385 316 385 386 315 386 387 313 387 388 314 388 389 300 389 390 298 390 391 299 391 392 312 392 393 378 393 394 369 394 395 368 395 396 311 396 397 310 397 398 309 398 399 297 399 400 295 400 401 296 401 402 308 402 403 306 403 404 307 404 405 305 405 406 304 406 407 274 407 408 273 408 409 272 409 410 267 410 411 265 411 412 266 412 413 271 413 414 269 414 415 270 415 416 278 416 417 268 417 418 264 418 419 263 419 420 262 420 421 261 421 422 260 422 423 258 423 424 259 424 425 257 425 426 256 426 427 255 427 428 253 428 429 254 429 430 277 430 431 275 431 432 276 432 433 282 433 434 283 434 435 294 435 436 293 436 437 291 437 438 292 438 439 343 439 440 342 440 441 340 441 442 341 442 443 377 443 444 376 444 445 375 445 446 367 446 447 355 447 448 354 448 449 339 449 450 337 450 451 338 451 452 336 452 453 334 453 454 335 454 455 366 455 456 365 456 457 364 457 458 362 458 459 363 459 460 374 460 461 373 461 462 361 462 463 353 463 464 351 464 465 352 465 466 372 466 467 371 467 468 370 468 469 333 469 470 332 470 471 326 471 472 325 472 473 324 473 474 322 474 475 323 475 476 321 476 477 320 477 478 319 478 479 317 479 480 318 480 481 360 481 482 359 482 483 350 483 484 349 484 485 348 485 486 331 486 487 329 487 488 330 488 489 347 489 490 346 490 491 344 491 492 345 492 493 358 493 494 357 494 495 356 495 496 328 496 497 327 497 498 303 498 499 301 499 500 302 500 501 290 501 502 289 502 503 288 503 504 287 504 379 379 286 287 504 287 288 503 288 289 502 289 290 501 290 302 500 302 301 499 301 303 498 303 327 497 327 328 496 328 356 495 356 357 494 357 358 493 358 345 492 345 344 491 344 346 490 346 347 489 347 330 488 330 329 487 329 331 486 331 348 485 348 349 484 349 350 483 350 359 482 359 360 481 360 318 480 318 317 479 317 319 478 319 320 477 320 321 476 321 323 475 323 322 474 322 324 473 324 325 472 325 326 471 326 332 470 332 333 469 333 370 468 370 371 467 371 372 466 372 352 465 352 351 464 351 353 463 353 361 462 361 373 461 373 374 460 374 363 459 363 362 458 362 364 457 364 365 456 365 366 455 366 335 454 335 334 453 334 336 452 336 338 451 338 337 450 337 339 449 339 354 448 354 355 447 355 367 446 367 375 445 375 376 444 376 377 443 377 341 442 341 340 441 340 342 440 342 343 439 343 292 438 292 291 437 291 293 436 293 294 435 294 283 434 283 282 433 282 276 432 276 275 431 275 277 430 277 254 429 254 253 428 253 255 427 255 256 426 256 257 425 257 259 424 259 258 423 258 260 422 260 261 421 261 262 420 262 263 419 263 264 418 264 268 417 268 278 416 278 270 415 270 269 414 269 271 413 271 266 412 266 265 411 265 267 410 267 272 409 272 273 408 273 274 407 274 304 406 304 305 405 305 307 404 307 306 403 306 308 402 308 296 401 296 295 400 295 297 399 297 309 398 309 310 397 310 311 396 311 368 395 368 369 394 369 378 393 378 312 392 312 299 391 299 298 390 298 300 389 300 314 388 314 313 387 313 315 386 315 316 385 316 284 384 284 280 383 280 279 382 279 281 381 281 285 380 285 286 505 504 503 503 502 505 502 501 505 501 500 505 500 499 505 499 498 505 498 497 505 497 496 505 496 495 505 495 494 505 494 493 505 493 492 505 492 491 505 491 490 505 490 489 505 489 488 505 488 487 505 487 486 505 486 485 505 485 484 505 484 483 505 483 482 505 482 481 505 481 480 505 480 479 505 479 478 505 478 477 505 477 476 505 476 475 505 475 474 505 474 473 505 473 472 505 472 471 505 471 470 505 470 469 505 469 468 505 468 467 505 467 466 505 466 465 505 465 464 505 464 463 505 463 462 505 462 461 505 461 460 505 460 459 505 459 458 505 458 457 505 457 456 505 456 455 505 455 454 505 454 453 505 453 452 505 452 451 505 451 450 505 450 449 505 449 448 505 448 447 505 447 446 505 446 445 505 445 444 505 444 443 505 443 442 505 442 441 505 441 440 505 440 439 505 439 438 505 438 437 505 437 436 505 436 435 505 435 434 505 434 433 505 433 432 505 432 431 505 431 430 505 430 429 505 429 428 505 428 427 505 427 426 505 426 425 505 425 424 505 424 423 505 423 422 505 422 421 505 421 420 505 420 419 505 419 418 505 418 417 505 417 416 505 416 415 505 415 414 505 414 413 505 413 412 505 412 411 505 411 410 505 410 409 505 409 408 505 408 407 505 407 406 505 406 405 505 405 404 505 404 403 505 403 402 505 402 401 505 401 400 505 400 399 505 399 398 505 398 397 505 397 396 505 396 395 505 395 394 505 394 393 505 393 392 505 392 391 505 391 390 505 390 389 505 389 388 505 388 387 505 387 386 505 386 385 505 385 384 505 384 383 505 383 382 505 382 381 505 381 380 505 380 379 505 379 504 505 506 507 508 509 506 510 511 509 512 513 511 514 515 513 516 517 515 518 519 517 520 521 519 522 523 521 524 525 523 526 527 525 528 529 527 530 531 529 532 533 531 534 535 533 536 537 535 538 539 537 540 541 539 542 543 541 544 545 543 546 547 545 548 549 547 550 551 549 552 553 551 554 555 553 556 557 555 558 559 557 560 561 559 562 563 561 564 565 563 566 567 565 568 569 567 570 571 569 572 573 571 574 575 573 576 577 575 578 579 577 580 581 579 582 583 581 584 585 583 586 587 585 588 589 587 590 591 589 592 593 591 594 595 593 596 597 595 598 599 597 600 601 599 602 603 601 604 605 603 606 607 605 608 609 607 610 611 609 612 613 611 614 615 613 616 617 615 618 619 617 620 621 619 622 623 621 624 625 623 626 627 625 628 629 627 630 631 629 632 633 631 634 635 633 636 637 635 638 639 637 640 641 639 642 643 641 644 645 643 646 647 645 648 649 647 650 651 649 652 653 651 654 655 653 656 657 655 658 659 657 660 661 659 662 663 661 664 665 663 666 667 665 668 669 667 670 671 669 672 673 671 674 675 673 676 677 675 678 679 677 680 681 679 682 683 681 684 685 683 686 687 685 688 689 687 690 691 689 692 693 691 694 695 693 696 697 695 698 699 697 700 701 699 702 703 701 704 705 703 706 707 705 708 709 707 710 711 709 712 713 711 714 715 713 716 717 715 718 719 717 720 721 719 722 723 721 724 725 723 726 727 725 728 729 727 730 731 729 732 733 731 734 735 733 736 737 735 738 739 737 740 741 739 742 743 741 744 745 743 746 747 745 748 749 747 750 751 749 752 753 751 754 755 753 756 757 755 758 759 757 760 761 759 762 763 761 764 507 763 765 765 508 507 764 765 763 762 764 761 760 762 759 758 760 757 756 758 755 754 756 753 752 754 751 750 752 749 748 750 747 746 748 745 744 746 743 742 744 741 740 742 739 738 740 737 736 738 735 734 736 733 732 734 731 730 732 729 728 730 727 726 728 725 724 726 723 722 724 721 720 722 719 718 720 717 716 718 715 714 716 713 712 714 711 710 712 709 708 710 707 706 708 705 704 706 703 702 704 701 700 702 699 698 700 697 696 698 695 694 696 693 692 694 691 690 692 689 688 690 687 686 688 685 684 686 683 682 684 681 680 682 679 678 680 677 676 678 675 674 676 673 672 674 671 670 672 669 668 670 667 666 668 665 664 666 663 662 664 661 660 662 659 658 660 657 656 658 655 654 656 653 652 654 651 650 652 649 648 650 647 646 648 645 644 646 643 642 644 641 640 642 639 638 640 637 636 638 635 634 636 633 632 634 631 630 632 629 628 630 627 626 628 625 624 626 623 622 624 621 620 622 619 618 620 617 616 618 615 614 616 613 612 614 611 610 612 609 608 610 607 606 608 605 604 606 603 602 604 601 600 602 599 598 600 597 596 598 595 594 596 593 592 594 591 590 592 589 588 590 587 586 588 585 584 586 583 582 584 581 580 582 579 578 580 577 576 578 575 574 576 573 572 574 571 570 572 569 568 570 567 566 568 565 564 566 563 562 564 561 560 562 559 558 560 557 556 558 555 554 556 553 552 554 551 550 552 549 548 550 547 546 548 545 544 546 543 542 544 541 540 542 539 538 540 537 536 538 535 534 536 533 532 534 531 530 532 529 528 530 527 526 528 525 524 526 523 522 524 521 520 522 519 518 520 517 516 518 515 514 516 513 512 514 511 510 512 509 508 510 506 766 702 700 767 704 702 768 698 696 769 700 698 702 766 767 770 706 704 771 710 708 772 712 710 773 694 692 774 696 694 698 768 769 704 767 770 775 708 706 710 771 772 776 777 726 778 779 734 779 780 736 781 782 554 782 783 556 784 785 560 785 786 562 787 788 570 788 789 572 790 791 676 791 792 678 694 773 774 700 769 766 708 775 771 793 714 712 724 794 776 777 795 728 736 734 779 780 796 738 556 554 782 783 784 558 562 560 785 786 797 564 572 570 788 789 798 574 799 800 586 800 801 588 678 676 791 792 802 680 803 686 684 804 688 686 805 690 688 806 692 690 696 774 768 712 772 793 807 716 714 808 718 716 728 726 777 795 809 730 809 778 732 738 736 780 810 552 550 558 556 783 564 562 786 797 811 566 811 787 568 574 572 789 798 812 576 813 814 582 814 799 584 588 586 800 801 815 590 816 817 594 818 596 594 819 600 598 820 602 600 680 678 792 802 821 682 686 803 804 690 805 806 706 770 775 716 807 808 822 722 720 794 724 722 730 728 795 734 732 778 550 823 810 560 558 784 568 566 811 576 574 798 812 824 578 824 813 580 584 582 814 590 588 801 815 816 592 594 817 818 825 598 596 600 819 820 826 606 604 827 608 606 828 829 658 829 830 660 682 680 802 831 684 682 688 804 805 714 793 807 832 720 718 722 822 794 732 730 809 796 833 740 834 544 542 835 546 544 554 552 781 570 568 787 580 578 824 586 584 799 594 592 816 598 825 819 836 604 602 606 826 827 837 838 652 838 839 654 839 828 656 660 658 829 830 840 662 840 841 664 682 821 831 692 806 773 720 832 822 740 738 796 833 842 742 842 843 744 844 845 764 845 846 765 846 847 508 848 510 508 849 530 528 850 532 530 851 534 532 852 536 534 853 538 536 854 540 538 855 542 540 544 834 835 566 564 797 582 580 813 596 818 825 604 836 826 856 837 650 654 652 838 658 656 828 664 662 840 857 858 668 858 859 670 859 860 672 860 790 674 684 831 803 726 724 776 744 742 842 843 861 746 861 862 748 862 863 750 765 764 845 508 847 848 864 516 514 865 518 516 866 526 524 867 528 526 530 849 850 534 851 852 538 853 854 542 855 834 868 548 546 823 550 548 578 576 812 602 820 836 652 650 837 662 660 830 841 857 666 670 668 858 674 672 860 718 808 832 746 744 843 750 748 862 869 870 758 870 871 760 508 765 846 872 512 510 873 514 512 516 864 865 874 520 518 875 522 520 876 524 522 526 866 867 532 850 851 540 854 855 548 868 823 592 590 815 877 626 624 878 628 626 656 654 839 668 666 857 676 674 790 748 746 861 879 880 754 880 869 756 760 758 870 871 844 762 510 848 872 514 873 864 520 874 875 524 876 866 536 852 853 810 781 552 881 622 620 882 624 622 626 877 878 883 630 628 666 664 841 742 740 833 863 879 752 756 754 880 762 760 871 512 872 873 522 875 876 546 835 868 884 618 616 885 620 618 622 881 882 628 878 883 672 670 859 754 752 879 764 762 844 528 867 849 886 614 612 887 616 614 618 884 885 624 882 877 888 634 632 889 636 634 752 750 863 518 865 874 890 610 608 891 612 610 614 886 887 620 885 881 892 632 630 634 888 889 893 894 646 894 856 648 758 756 869 610 890 891 616 887 884 632 892 888 895 638 636 896 897 640 897 898 642 898 893 644 648 646 894 608 827 890 630 883 892 636 889 895 638 899 896 644 642 898 650 648 856 895 899 638 642 640 897 612 891 886 646 644 893 640 638 896 505 847 846 900 846 845 901 845 844 902 844 871 903 871 870 904 870 869 905 869 880 906 880 879 907 879 863 908 863 862 909 862 861 910 861 843 911 843 842 912 842 833 913 833 796 914 796 780 915 780 779 916 779 778 917 778 809 918 809 795 919 795 777 920 777 776 921 776 794 922 794 822 923 822 832 924 832 808 925 808 807 926 807 793 927 793 772 928 772 771 929 771 775 930 775 770 931 770 767 932 767 766 933 766 769 934 769 768 935 768 774 936 774 773 937 773 806 938 806 805 939 805 804 940 804 803 941 803 831 942 831 821 943 821 802 944 802 792 945 792 791 946 791 790 947 790 860 948 860 859 949 859 858 950 858 857 951 857 841 952 841 840 953 840 830 954 830 829 955 829 828 956 828 839 957 839 838 958 838 837 959 837 856 960 856 894 961 894 893 962 893 898 963 898 897 964 897 896 895 965 966 967 896 899 899 966 967 965 895 889 968 889 888 969 888 892 970 892 883 971 883 878 972 878 877 973 877 882 974 882 881 975 881 885 976 885 884 977 884 887 978 887 886 979 886 891 980 891 890 981 890 827 982 827 826 983 826 836 984 836 820 985 820 819 986 819 825 987 825 818 988 818 817 989 817 816 990 816 815 991 815 801 992 801 800 993 800 799 994 799 814 995 814 813 996 813 824 997 824 812 998 812 798 999 798 789 1000 789 788 1001 788 787 1002 787 811 1003 811 797 1004 797 786 1005 786 785 1006 785 784 1007 784 783 1008 783 782 1009 782 781 1010 781 810 1011 810 823 1012 823 868 1013 868 835 1014 835 834 1015 834 855 1016 855 854 1017 854 853 1018 853 852 1019 852 851 1020 851 850 1021 850 849 1022 849 867 1023 867 866 1024 866 876 1025 876 875 1026 875 874 1027 874 865 1028 865 864 1029 864 873 1030 873 872 1031 872 848 1032 848 847 847 505 1032 848 1032 1031 872 1031 1030 873 1030 1029 864 1029 1028 865 1028 1027 874 1027 1026 875 1026 1025 876 1025 1024 866 1024 1023 867 1023 1022 849 1022 1021 850 1021 1020 851 1020 1019 852 1019 1018 853 1018 1017 854 1017 1016 855 1016 1015 834 1015 1014 835 1014 1013 868 1013 1012 823 1012 1011 810 1011 1010 781 1010 1009 782 1009 1008 783 1008 1007 784 1007 1006 785 1006 1005 786 1005 1004 797 1004 1003 811 1003 1002 787 1002 1001 788 1001 1000 789 1000 999 798 999 998 812 998 997 824 997 996 813 996 995 814 995 994 799 994 993 800 993 992 801 992 991 815 991 990 816 990 989 817 989 988 818 988 987 825 987 986 819 986 985 820 985 984 836 984 983 826 983 982 827 982 981 890 981 980 891 980 979 886 979 978 887 978 977 884 977 976 885 976 975 881 975 974 882 974 973 877 973 972 878 972 971 883 971 970 892 970 969 888 969 968 889 968 965 966 899 895 896 967 964 897 964 963 898 963 962 893 962 961 894 961 960 856 960 959 837 959 958 838 958 957 839 957 956 828 956 955 829 955 954 830 954 953 840 953 952 841 952 951 857 951 950 858 950 949 859 949 948 860 948 947 790 947 946 791 946 945 792 945 944 802 944 943 821 943 942 831 942 941 803 941 940 804 940 939 805 939 938 806 938 937 773 937 936 774 936 935 768 935 934 769 934 933 766 933 932 767 932 931 770 931 930 775 930 929 771 929 928 772 928 927 793 927 926 807 926 925 808 925 924 832 924 923 822 923 922 794 922 921 776 921 920 777 920 919 795 919 918 809 918 917 778 917 916 779 916 915 780 915 914 796 914 913 833 913 912 842 912 911 843 911 910 861 910 909 862 909 908 863 908 907 879 907 906 880 906 905 869 905 904 870 904 903 871 903 902 844 902 901 845 901 900 846 900 505 931 932 701 932 933 699 928 929 707 929 930 705 699 701 932 933 934 697 934 935 695 935 936 693 985 986 597 986 987 595 1006 557 559 1007 555 557 916 731 733 917 729 731 921 721 723 705 707 929 930 931 703 697 699 933 693 695 935 595 597 986 987 988 593 988 989 591 990 589 591 993 583 585 994 581 583 999 571 573 1000 569 571 1005 559 561 557 1006 1007 915 733 735 731 916 917 920 723 725 723 920 921 925 926 713 926 927 711 927 928 709 703 705 930 695 697 934 936 937 691 946 673 675 947 671 673 982 983 603 983 984 601 593 595 987 591 989 990 992 585 587 583 993 994 995 579 581 996 577 579 571 999 1000 1001 567 569 559 1005 1006 1008 553 555 1009 551 553 1010 549 551 733 915 916 918 727 729 919 725 727 921 922 721 711 713 926 707 709 928 691 693 936 937 938 689 938 939 687 939 940 685 940 941 683 941 942 681 945 675 677 673 946 947 601 603 983 984 985 599 591 593 988 991 587 589 585 992 993 579 995 996 997 575 577 998 573 575 569 1000 1001 1002 565 567 1003 563 565 1004 561 563 555 1007 1008 551 1009 1010 1011 1012 547 729 917 918 725 919 920 922 923 719 923 924 717 709 711 927 689 691 937 685 687 939 681 683 941 944 677 679 675 945 946 599 601 984 589 990 991 581 994 995 575 997 998 567 1001 1002 563 1003 1004 553 1008 1009 549 1010 1011 1014 1015 541 1015 1016 539 912 739 741 913 737 739 914 735 737 727 918 919 717 719 923 924 925 715 701 703 931 683 685 940 942 943 679 677 944 945 955 655 657 956 653 655 972 973 623 973 974 621 597 599 985 577 996 997 565 1002 1003 547 549 1011 539 541 1015 1016 1017 537 1017 1018 535 1018 1019 533 1019 1020 531 1020 1021 529 1021 1022 527 1022 1023 525 909 745 747 910 743 745 911 741 743 739 912 913 735 914 915 715 717 924 687 689 938 679 943 944 950 665 667 951 663 665 953 659 661 954 657 659 655 955 956 957 651 653 971 972 625 621 623 973 974 975 619 975 976 617 587 991 992 561 1004 1005 1012 1013 545 1013 1014 543 537 539 1016 533 535 1018 529 531 1020 525 527 1022 1023 1024 523 1024 1025 521 901 761 763 902 759 761 904 755 757 905 753 755 745 909 910 741 911 912 719 721 922 679 681 942 665 950 951 952 661 663 659 953 954 653 956 957 958 649 651 959 647 649 623 625 972 617 619 975 976 977 615 977 978 613 573 998 999 543 545 1013 535 537 1017 527 529 1021 521 523 1024 1025 1026 519 1026 1027 517 1027 1028 515 1028 1029 513 1029 1030 511 900 763 507 761 901 902 903 757 759 755 904 905 906 751 753 907 749 751 743 910 911 713 715 925 948 669 671 949 667 669 663 951 952 657 954 955 649 958 959 960 645 647 967 635 637 965 968 633 968 969 631 969 970 629 619 621 974 613 615 977 978 979 611 979 980 609 545 547 1012 531 533 1019 519 521 1025 515 517 1027 511 513 1029 1030 1031 509 1031 1032 506 1032 505 507 763 900 901 757 903 904 751 906 907 908 747 749 737 913 914 669 948 949 661 952 953 647 959 960 963 639 641 964 637 639 637 964 967 635 966 965 629 631 969 970 971 627 615 617 976 609 611 979 541 543 1014 517 519 1026 509 511 1030 507 506 1032 759 902 903 749 907 908 671 947 948 651 957 958 639 963 964 633 635 965 627 629 970 611 613 978 980 981 607 981 982 605 523 525 1023 506 509 1031 753 905 906 667 949 950 961 643 645 962 641 643 967 966 635 625 627 971 605 607 981 513 515 1028 747 908 909 643 961 962 631 633 968 603 605 982 645 960 961 607 609 980 641 962 963 507 505 900</p>
        </triangles>
      </mesh>
    </geometry>
  </library_geometries>
  <library_visual_scenes>
    <visual_scene id="DefaultScene">
      <node id="node_0" type="NODE">
        <instance_geometry url="#geometry_0">
          <bind_material>
            <technique_common>
              <instance_material symbol="mat_0Sb" target="#mat_0"/>
            </technique_common>
          </bind_material>
        </instance_geometry>
      </node>
    </visual_scene>
  </library_visual_scenes>
  <scene>
    <instance_visual_scene url="#DefaultScene"/>
  </scene>
</COLLADA>
